<?xml version="1.0"?><svg xmlns="http://www.w3.org/2000/svg" width="136" height="235"><rect x="0" y="0" width="100%" height="100%" fill="rgb(223, 230, 233)" /><polyline points="22.666666666667, 0, 45.333333333333, 39.259818304895, 0, 39.259818304895, 22.666666666667, 0" fill="#222" fill-opacity="0.080666666666667" stroke="#000" stroke-opacity="0.02" transform="translate(-22.666666666667, 0) rotate(180, 22.666666666667, 19.629909152447)" /><polyline points="22.666666666667, 0, 45.333333333333, 39.259818304895, 0, 39.259818304895, 22.666666666667, 0" fill="#222" fill-opacity="0.080666666666667" stroke="#000" stroke-opacity="0.02" transform="translate(113.33333333333, 0) rotate(180, 22.666666666667, 19.629909152447)" /><polyline points="22.666666666667, 0, 45.333333333333, 39.259818304895, 0, 39.259818304895, 22.666666666667, 0" fill="#222" fill-opacity="0.080666666666667" stroke="#000" stroke-opacity="0.02" transform="translate(0, 0) rotate(0, 22.666666666667, 19.629909152447)" /><polyline points="22.666666666667, 0, 45.333333333333, 39.259818304895, 0, 39.259818304895, 22.666666666667, 0" fill="#222" fill-opacity="0.13266666666667" stroke="#000" stroke-opacity="0.02" transform="translate(22.666666666667, 0) rotate(180, 22.666666666667, 19.629909152447)" /><polyline points="22.666666666667, 0, 45.333333333333, 39.259818304895, 0, 39.259818304895, 22.666666666667, 0" fill="#ddd" fill-opacity="0.14133333333333" stroke="#000" stroke-opacity="0.02" transform="translate(45.333333333333, 0) rotate(0, 22.666666666667, 19.629909152447)" /><polyline points="22.666666666667, 0, 45.333333333333, 39.259818304895, 0, 39.259818304895, 22.666666666667, 0" fill="#ddd" fill-opacity="0.072" stroke="#000" stroke-opacity="0.02" transform="translate(68, 0) rotate(180, 22.666666666667, 19.629909152447)" /><polyline points="22.666666666667, 0, 45.333333333333, 39.259818304895, 0, 39.259818304895, 22.666666666667, 0" fill="#ddd" fill-opacity="0.089333333333333" stroke="#000" stroke-opacity="0.02" transform="translate(90.666666666667, 0) rotate(0, 22.666666666667, 19.629909152447)" /><polyline points="22.666666666667, 0, 45.333333333333, 39.259818304895, 0, 39.259818304895, 22.666666666667, 0" fill="#222" fill-opacity="0.13266666666667" stroke="#000" stroke-opacity="0.02" transform="translate(-22.666666666667, 39.259818304895) rotate(0, 22.666666666667, 19.629909152447)" /><polyline points="22.666666666667, 0, 45.333333333333, 39.259818304895, 0, 39.259818304895, 22.666666666667, 0" fill="#222" fill-opacity="0.13266666666667" stroke="#000" stroke-opacity="0.02" transform="translate(113.33333333333, 39.259818304895) rotate(0, 22.666666666667, 19.629909152447)" /><polyline points="22.666666666667, 0, 45.333333333333, 39.259818304895, 0, 39.259818304895, 22.666666666667, 0" fill="#ddd" fill-opacity="0.10666666666667" stroke="#000" stroke-opacity="0.02" transform="translate(0, 39.259818304895) rotate(180, 22.666666666667, 19.629909152447)" /><polyline points="22.666666666667, 0, 45.333333333333, 39.259818304895, 0, 39.259818304895, 22.666666666667, 0" fill="#ddd" fill-opacity="0.14133333333333" stroke="#000" stroke-opacity="0.02" transform="translate(22.666666666667, 39.259818304895) rotate(0, 22.666666666667, 19.629909152447)" /><polyline points="22.666666666667, 0, 45.333333333333, 39.259818304895, 0, 39.259818304895, 22.666666666667, 0" fill="#ddd" fill-opacity="0.124" stroke="#000" stroke-opacity="0.02" transform="translate(45.333333333333, 39.259818304895) rotate(180, 22.666666666667, 19.629909152447)" /><polyline points="22.666666666667, 0, 45.333333333333, 39.259818304895, 0, 39.259818304895, 22.666666666667, 0" fill="#222" fill-opacity="0.13266666666667" stroke="#000" stroke-opacity="0.02" transform="translate(68, 39.259818304895) rotate(0, 22.666666666667, 19.629909152447)" /><polyline points="22.666666666667, 0, 45.333333333333, 39.259818304895, 0, 39.259818304895, 22.666666666667, 0" fill="#ddd" fill-opacity="0.089333333333333" stroke="#000" stroke-opacity="0.02" transform="translate(90.666666666667, 39.259818304895) rotate(180, 22.666666666667, 19.629909152447)" /><polyline points="22.666666666667, 0, 45.333333333333, 39.259818304895, 0, 39.259818304895, 22.666666666667, 0" fill="#ddd" fill-opacity="0.037333333333333" stroke="#000" stroke-opacity="0.02" transform="translate(-22.666666666667, 78.519636609789) rotate(180, 22.666666666667, 19.629909152447)" /><polyline points="22.666666666667, 0, 45.333333333333, 39.259818304895, 0, 39.259818304895, 22.666666666667, 0" fill="#ddd" fill-opacity="0.037333333333333" stroke="#000" stroke-opacity="0.02" transform="translate(113.33333333333, 78.519636609789) rotate(180, 22.666666666667, 19.629909152447)" /><polyline points="22.666666666667, 0, 45.333333333333, 39.259818304895, 0, 39.259818304895, 22.666666666667, 0" fill="#222" fill-opacity="0.046" stroke="#000" stroke-opacity="0.02" transform="translate(0, 78.519636609789) rotate(0, 22.666666666667, 19.629909152447)" /><polyline points="22.666666666667, 0, 45.333333333333, 39.259818304895, 0, 39.259818304895, 22.666666666667, 0" fill="#222" fill-opacity="0.11533333333333" stroke="#000" stroke-opacity="0.02" transform="translate(22.666666666667, 78.519636609789) rotate(180, 22.666666666667, 19.629909152447)" /><polyline points="22.666666666667, 0, 45.333333333333, 39.259818304895, 0, 39.259818304895, 22.666666666667, 0" fill="#ddd" fill-opacity="0.10666666666667" stroke="#000" stroke-opacity="0.02" transform="translate(45.333333333333, 78.519636609789) rotate(0, 22.666666666667, 19.629909152447)" /><polyline points="22.666666666667, 0, 45.333333333333, 39.259818304895, 0, 39.259818304895, 22.666666666667, 0" fill="#222" fill-opacity="0.11533333333333" stroke="#000" stroke-opacity="0.02" transform="translate(68, 78.519636609789) rotate(180, 22.666666666667, 19.629909152447)" /><polyline points="22.666666666667, 0, 45.333333333333, 39.259818304895, 0, 39.259818304895, 22.666666666667, 0" fill="#222" fill-opacity="0.11533333333333" stroke="#000" stroke-opacity="0.02" transform="translate(90.666666666667, 78.519636609789) rotate(0, 22.666666666667, 19.629909152447)" /><polyline points="22.666666666667, 0, 45.333333333333, 39.259818304895, 0, 39.259818304895, 22.666666666667, 0" fill="#222" fill-opacity="0.11533333333333" stroke="#000" stroke-opacity="0.02" transform="translate(-22.666666666667, 117.77945491468) rotate(0, 22.666666666667, 19.629909152447)" /><polyline points="22.666666666667, 0, 45.333333333333, 39.259818304895, 0, 39.259818304895, 22.666666666667, 0" fill="#222" fill-opacity="0.11533333333333" stroke="#000" stroke-opacity="0.02" transform="translate(113.33333333333, 117.77945491468) rotate(0, 22.666666666667, 19.629909152447)" /><polyline points="22.666666666667, 0, 45.333333333333, 39.259818304895, 0, 39.259818304895, 22.666666666667, 0" fill="#222" fill-opacity="0.063333333333333" stroke="#000" stroke-opacity="0.02" transform="translate(0, 117.77945491468) rotate(180, 22.666666666667, 19.629909152447)" /><polyline points="22.666666666667, 0, 45.333333333333, 39.259818304895, 0, 39.259818304895, 22.666666666667, 0" fill="#ddd" fill-opacity="0.089333333333333" stroke="#000" stroke-opacity="0.02" transform="translate(22.666666666667, 117.77945491468) rotate(0, 22.666666666667, 19.629909152447)" /><polyline points="22.666666666667, 0, 45.333333333333, 39.259818304895, 0, 39.259818304895, 22.666666666667, 0" fill="#ddd" fill-opacity="0.14133333333333" stroke="#000" stroke-opacity="0.02" transform="translate(45.333333333333, 117.77945491468) rotate(180, 22.666666666667, 19.629909152447)" /><polyline points="22.666666666667, 0, 45.333333333333, 39.259818304895, 0, 39.259818304895, 22.666666666667, 0" fill="#222" fill-opacity="0.13266666666667" stroke="#000" stroke-opacity="0.02" transform="translate(68, 117.77945491468) rotate(0, 22.666666666667, 19.629909152447)" /><polyline points="22.666666666667, 0, 45.333333333333, 39.259818304895, 0, 39.259818304895, 22.666666666667, 0" fill="#222" fill-opacity="0.11533333333333" stroke="#000" stroke-opacity="0.02" transform="translate(90.666666666667, 117.77945491468) rotate(180, 22.666666666667, 19.629909152447)" /><polyline points="22.666666666667, 0, 45.333333333333, 39.259818304895, 0, 39.259818304895, 22.666666666667, 0" fill="#222" fill-opacity="0.028666666666667" stroke="#000" stroke-opacity="0.02" transform="translate(-22.666666666667, 157.03927321958) rotate(180, 22.666666666667, 19.629909152447)" /><polyline points="22.666666666667, 0, 45.333333333333, 39.259818304895, 0, 39.259818304895, 22.666666666667, 0" fill="#222" fill-opacity="0.028666666666667" stroke="#000" stroke-opacity="0.02" transform="translate(113.33333333333, 157.03927321958) rotate(180, 22.666666666667, 19.629909152447)" /><polyline points="22.666666666667, 0, 45.333333333333, 39.259818304895, 0, 39.259818304895, 22.666666666667, 0" fill="#ddd" fill-opacity="0.124" stroke="#000" stroke-opacity="0.02" transform="translate(0, 157.03927321958) rotate(0, 22.666666666667, 19.629909152447)" /><polyline points="22.666666666667, 0, 45.333333333333, 39.259818304895, 0, 39.259818304895, 22.666666666667, 0" fill="#ddd" fill-opacity="0.089333333333333" stroke="#000" stroke-opacity="0.02" transform="translate(22.666666666667, 157.03927321958) rotate(180, 22.666666666667, 19.629909152447)" /><polyline points="22.666666666667, 0, 45.333333333333, 39.259818304895, 0, 39.259818304895, 22.666666666667, 0" fill="#ddd" fill-opacity="0.14133333333333" stroke="#000" stroke-opacity="0.02" transform="translate(45.333333333333, 157.03927321958) rotate(0, 22.666666666667, 19.629909152447)" /><polyline points="22.666666666667, 0, 45.333333333333, 39.259818304895, 0, 39.259818304895, 22.666666666667, 0" fill="#222" fill-opacity="0.028666666666667" stroke="#000" stroke-opacity="0.02" transform="translate(68, 157.03927321958) rotate(180, 22.666666666667, 19.629909152447)" /><polyline points="22.666666666667, 0, 45.333333333333, 39.259818304895, 0, 39.259818304895, 22.666666666667, 0" fill="#ddd" fill-opacity="0.054666666666667" stroke="#000" stroke-opacity="0.02" transform="translate(90.666666666667, 157.03927321958) rotate(0, 22.666666666667, 19.629909152447)" /><polyline points="22.666666666667, 0, 45.333333333333, 39.259818304895, 0, 39.259818304895, 22.666666666667, 0" fill="#222" fill-opacity="0.13266666666667" stroke="#000" stroke-opacity="0.02" transform="translate(-22.666666666667, 196.29909152447) rotate(0, 22.666666666667, 19.629909152447)" /><polyline points="22.666666666667, 0, 45.333333333333, 39.259818304895, 0, 39.259818304895, 22.666666666667, 0" fill="#222" fill-opacity="0.13266666666667" stroke="#000" stroke-opacity="0.02" transform="translate(113.33333333333, 196.29909152447) rotate(0, 22.666666666667, 19.629909152447)" /><polyline points="22.666666666667, 0, 45.333333333333, 39.259818304895, 0, 39.259818304895, 22.666666666667, 0" fill="#222" fill-opacity="0.080666666666667" stroke="#000" stroke-opacity="0.02" transform="translate(0, 196.29909152447) rotate(180, 22.666666666667, 19.629909152447)" /><polyline points="22.666666666667, 0, 45.333333333333, 39.259818304895, 0, 39.259818304895, 22.666666666667, 0" fill="#222" fill-opacity="0.028666666666667" stroke="#000" stroke-opacity="0.02" transform="translate(22.666666666667, 196.29909152447) rotate(0, 22.666666666667, 19.629909152447)" /><polyline points="22.666666666667, 0, 45.333333333333, 39.259818304895, 0, 39.259818304895, 22.666666666667, 0" fill="#ddd" fill-opacity="0.02" stroke="#000" stroke-opacity="0.02" transform="translate(45.333333333333, 196.29909152447) rotate(180, 22.666666666667, 19.629909152447)" /><polyline points="22.666666666667, 0, 45.333333333333, 39.259818304895, 0, 39.259818304895, 22.666666666667, 0" fill="#ddd" fill-opacity="0.072" stroke="#000" stroke-opacity="0.02" transform="translate(68, 196.29909152447) rotate(0, 22.666666666667, 19.629909152447)" /><polyline points="22.666666666667, 0, 45.333333333333, 39.259818304895, 0, 39.259818304895, 22.666666666667, 0" fill="#ddd" fill-opacity="0.14133333333333" stroke="#000" stroke-opacity="0.02" transform="translate(90.666666666667, 196.29909152447) rotate(180, 22.666666666667, 19.629909152447)" /></svg>